<svg height="56" viewBox="0 0 56 56" width="56" xmlns="http://www.w3.org/2000/svg"><path d="m27.9999 51.9063c13.0547 0 23.9064-10.8282 23.9064-23.9063 0-13.0547-10.8751-23.9063-23.9298-23.9063-13.0782 0-23.8828 10.8516-23.8828 23.9063 0 13.0781 10.8281 23.9063 23.9062 23.9063zm0-3.9844c-11.0625 0-19.8985-8.8594-19.8985-19.9219 0-11.0391 8.8126-19.9219 19.8751-19.9219 11.039 0 19.9218 8.8828 19.9454 19.9219.0235 11.0625-8.8829 19.9219-19.922 19.9219zm6.4922-14.1094c1.0313 0 1.7109-.7735 1.7109-1.875v-11.0391c0-1.3828-.75-1.9453-1.9453-1.9453h-11.1094c-1.1015 0-1.8047.6797-1.8047 1.711 0 1.0547.7266 1.7343 1.8516 1.7343h4.2657l3.4687-.375-3.6563 3.3985-8.6484 8.6484c-.3281.3281-.5625.7734-.5625 1.2422 0 1.0547.7031 1.7578 1.7344 1.7578.5625 0 .9844-.2109 1.3359-.5391l8.625-8.6484 3.375-3.586-.3515 3.6329v4.0547c0 1.125.6797 1.8281 1.7109 1.8281z"/></svg>