<svg height="20" viewBox="0 0 20 20" width="20" xmlns="http://www.w3.org/2000/svg"><path d="m16.9284 12.103c.1869.4382.0481.9894-.416 1.2599l-6.0089 3.5024c-.3112.1814-.69588.1814-1.00709 0l-6.00889-3.5024c-.46413-.2705-.60291-.8217-.41593-1.2599l6.43802 3.6224c.30447.1713.67629.1713.98069 0zm0-2.45298c.1869.43828.0481.98948-.416 1.25998l-6.0089 3.5023c-.3112.1814-.69588.1814-1.00709 0l-6.00889-3.5023c-.46413-.2705-.60291-.8217-.41593-1.25998l6.43802 3.62248c.30447.1713.67629.1713.98069 0zm-6.423-6.53341 6.0089 3.51947c.6602.38673.6592 1.34151-.0019 1.72684l-6.0089 3.50228c-.3112.1814-.69588.1814-1.00709 0l-6.00889-3.50228c-.6611-.38533-.66211-1.34011-.00183-1.72684l6.00888-3.51947c.31214-.18282.69863-.18282 1.01083 0zm-1.01083 1.1589-5.50348 3.22345 5.50532 3.20884c.31121.1814.69589.1814 1.00709 0l5.5054-3.20884-5.5035-3.22345c-.3122-.18282-.69869-.18282-1.01083 0z" fill="#212121"/></svg>